<svg xmlns="http://www.w3.org/2000/svg" viewBox="0 0 1600 1000" role="img" aria-labelledby="title desc">
  <title id="title">Academic sports science workspace</title>
  <desc id="desc">A restrained illustration of a sports science lab, athletic training table, bookshelves, and strength equipment.</desc>
  <defs>
    <linearGradient id="wall" x1="0" x2="1" y1="0" y2="1">
      <stop offset="0" stop-color="#f7f5ef"/>
      <stop offset=".56" stop-color="#e6ebe3"/>
      <stop offset="1" stop-color="#d8ded6"/>
    </linearGradient>
    <linearGradient id="floor" x1="0" x2="0" y1="0" y2="1">
      <stop offset="0" stop-color="#d9d5ca"/>
      <stop offset="1" stop-color="#b8b1a2"/>
    </linearGradient>
    <filter id="softShadow" x="-20%" y="-20%" width="140%" height="140%">
      <feDropShadow dx="0" dy="18" stdDeviation="18" flood-color="#26322d" flood-opacity=".18"/>
    </filter>
  </defs>
  <rect width="1600" height="1000" fill="url(#wall)"/>
  <path d="M0 690h1600v310H0z" fill="url(#floor)"/>
  <path d="M0 690h1600" stroke="#7c8379" stroke-opacity=".32" stroke-width="4"/>
  <g opacity=".75">
    <rect x="1030" y="95" width="360" height="300" rx="6" fill="#dfe7df" stroke="#4c5a53" stroke-opacity=".35" stroke-width="5"/>
    <path d="M1058 128h304v235h-304z" fill="#eef3ef"/>
    <path d="M1210 128v235M1058 246h304" stroke="#647268" stroke-opacity=".45" stroke-width="5"/>
    <path d="M1070 224c90-58 177-73 279-48" fill="none" stroke="#8da29a" stroke-opacity=".35" stroke-width="7"/>
  </g>
  <g transform="translate(104 164)" opacity=".9">
    <rect x="0" y="0" width="285" height="440" rx="10" fill="#455149"/>
    <rect x="22" y="24" width="241" height="392" fill="#f0eee8"/>
    <path d="M40 82h204M40 162h204M40 242h204M40 322h204" stroke="#465149" stroke-width="7" opacity=".3"/>
    <g>
      <rect x="48" y="49" width="22" height="33" fill="#6d2632"/>
      <rect x="77" y="39" width="18" height="43" fill="#355f50"/>
      <rect x="102" y="55" width="74" height="27" fill="#a09a8c"/>
      <rect x="50" y="130" width="88" height="32" fill="#355f50"/>
      <rect x="147" y="118" width="19" height="44" fill="#6d2632"/>
      <rect x="176" y="136" width="59" height="26" fill="#807668"/>
      <rect x="48" y="210" width="18" height="32" fill="#6d2632"/>
      <rect x="75" y="202" width="23" height="40" fill="#355f50"/>
      <rect x="108" y="218" width="126" height="24" fill="#b6ab9a"/>
      <rect x="48" y="292" width="112" height="30" fill="#807668"/>
      <rect x="170" y="281" width="20" height="41" fill="#355f50"/>
      <rect x="199" y="300" width="42" height="22" fill="#6d2632"/>
    </g>
  </g>
  <g transform="translate(515 462)" filter="url(#softShadow)">
    <rect x="42" y="72" width="525" height="120" rx="16" fill="#6d2632"/>
    <rect x="75" y="30" width="460" height="72" rx="12" fill="#f3f1ec"/>
    <path d="M92 102h426" stroke="#b9b0a1" stroke-width="8"/>
    <path d="M96 192v130M512 192v130" stroke="#47544d" stroke-width="18" stroke-linecap="round"/>
    <rect x="0" y="312" width="610" height="24" rx="12" fill="#47544d"/>
  </g>
  <g transform="translate(980 458)" stroke="#35433d" stroke-width="22" stroke-linecap="round" stroke-linejoin="round" fill="none" opacity=".9">
    <path d="M98 292V40h260v252"/>
    <path d="M82 40h292"/>
    <path d="M130 292h196"/>
    <path d="M228 40v252"/>
    <path d="M44 118h368"/>
    <circle cx="26" cy="118" r="24" fill="#35433d" stroke="none"/>
    <circle cx="430" cy="118" r="24" fill="#35433d" stroke="none"/>
  </g>
  <g transform="translate(823 285)" opacity=".82">
    <rect x="0" y="0" width="130" height="210" rx="8" fill="#eef0eb" stroke="#47544d" stroke-opacity=".35" stroke-width="5"/>
    <path d="M21 45h87M21 86h87M21 127h60" stroke="#355f50" stroke-width="8" stroke-linecap="round"/>
    <circle cx="94" cy="162" r="18" fill="#6d2632"/>
  </g>
  <g transform="translate(1210 632)" opacity=".82">
    <rect x="0" y="0" width="205" height="125" rx="10" fill="#2f3b36"/>
    <path d="M34 76c34-45 72 31 107-10 12-14 23-30 43-29" stroke="#dfe7df" stroke-width="7" fill="none"/>
    <path d="M26 98h154" stroke="#dfe7df" stroke-width="5" opacity=".5"/>
  </g>
  <g opacity=".22" fill="none" stroke="#355f50" stroke-width="3">
    <circle cx="650" cy="260" r="76"/>
    <circle cx="650" cy="260" r="44"/>
    <path d="M650 184v152M574 260h152M596 206l108 108M704 206 596 314"/>
  </g>
  <rect width="1600" height="1000" fill="#19231f" opacity=".06"/>
</svg>
